<svg width="2346" height="1490" viewBox="0 0 2346 1490" fill="none" xmlns="http://www.w3.org/2000/svg">
<g opacity="0.66">
<g filter="url(#filter0_f_4633_8577)">
<ellipse cx="1487.99" cy="765.304" rx="319.593" ry="185.289" fill="#003FE1" fill-opacity="0.4"/>
</g>
<g filter="url(#filter1_f_4633_8577)">
<ellipse cx="1060.58" cy="705.568" rx="403.607" ry="167.307" fill="#00BCE1" fill-opacity="0.4"/>
</g>
<g filter="url(#filter2_f_4633_8577)">
<ellipse cx="866.716" cy="791.397" rx="362.096" ry="193.983" fill="#1E1BA9" fill-opacity="0.4"/>
</g>
<g opacity="0.3" filter="url(#filter3_f_4633_8577)">
<path d="M982.246 474.244L982.962 500.152C983.284 511.829 992.675 521.219 1004.35 521.542L1030.26 522.257L1004.35 522.972C992.675 523.295 983.284 532.685 982.962 544.362L982.246 570.27L981.531 544.362C981.209 532.685 971.818 523.295 960.141 522.972L934.234 522.257L960.141 521.542C971.818 521.219 981.209 511.829 981.531 500.152L982.246 474.244Z" fill="white"/>
</g>
<path d="M1404.36 564.768L1404.7 576.994C1404.99 587.609 1413.53 596.146 1424.14 596.439L1436.37 596.777L1424.14 597.114C1413.53 597.407 1404.99 605.944 1404.7 616.56L1404.36 628.785L1404.02 616.56C1403.73 605.944 1395.19 597.407 1384.58 597.114L1372.35 596.777L1384.58 596.439C1395.19 596.146 1403.73 587.609 1404.02 576.994L1404.36 564.768Z" fill="white"/>
<g opacity="0.3" filter="url(#filter4_f_4633_8577)">
<path d="M910.227 818.335L910.451 826.449C910.627 832.819 915.749 837.941 922.119 838.117L930.233 838.341L922.119 838.565C915.749 838.741 910.627 843.863 910.451 850.232L910.227 858.346L910.003 850.232C909.827 843.863 904.705 838.741 898.336 838.565L890.222 838.341L898.336 838.117C904.705 837.941 909.827 832.819 910.003 826.449L910.227 818.335Z" fill="white"/>
</g>
<g opacity="0.3" filter="url(#filter5_f_4633_8577)">
<path d="M1144.29 714.308L1144.51 722.422C1144.69 728.791 1149.81 733.913 1156.18 734.089L1164.29 734.313L1156.18 734.537C1149.81 734.713 1144.69 739.835 1144.51 746.204L1144.29 754.318L1144.07 746.204C1143.89 739.835 1138.77 734.713 1132.4 734.537L1124.28 734.313L1132.4 734.089C1138.77 733.913 1143.89 728.791 1144.07 722.422L1144.29 714.308Z" fill="white"/>
</g>
<g opacity="0.6" filter="url(#filter6_f_4633_8577)">
<path d="M681.167 1008.89L681.391 1017C681.567 1023.37 686.689 1028.49 693.058 1028.67L701.172 1028.89L693.058 1029.12C686.689 1029.29 681.567 1034.41 681.391 1040.78L681.167 1048.9L680.943 1040.78C680.767 1034.41 675.645 1029.29 669.275 1029.12L661.161 1028.89L669.275 1028.67C675.645 1028.49 680.767 1023.37 680.943 1017L681.167 1008.89Z" fill="white"/>
</g>
<g opacity="0.3" filter="url(#filter7_f_4633_8577)">
<path d="M699.672 663.294L700.387 689.202C700.709 700.879 710.1 710.269 721.777 710.592L747.684 711.307L721.777 712.022C710.1 712.345 700.709 721.735 700.387 733.412L699.672 759.32L698.956 733.412C698.634 721.735 689.243 712.345 677.566 712.022L651.659 711.307L677.566 710.592C689.243 710.269 698.634 700.879 698.956 689.202L699.672 663.294Z" fill="white"/>
</g>
<path d="M1627.42 783.971L1627.75 796.196C1628.05 806.812 1636.58 815.349 1647.2 815.642L1659.43 815.979L1647.2 816.317C1636.58 816.61 1628.05 825.147 1627.75 835.762L1627.42 847.988L1627.08 835.762C1626.79 825.147 1618.25 816.61 1607.63 816.317L1595.41 815.979L1607.63 815.642C1618.25 815.349 1626.79 806.812 1627.08 796.196L1627.42 783.971Z" fill="white"/>
<path d="M963.742 1033.04L964.079 1045.26C964.372 1055.88 972.909 1064.41 983.525 1064.71L995.75 1065.05L983.525 1065.38C972.909 1065.68 964.372 1074.21 964.079 1084.83L963.742 1097.05L963.404 1084.83C963.111 1074.21 954.574 1065.68 943.958 1065.38L931.733 1065.05L943.958 1064.71C954.574 1064.41 963.111 1055.88 963.404 1045.26L963.742 1033.04Z" fill="white"/>
<g filter="url(#filter8_f_4633_8577)">
<path d="M1419.86 983.379L1420.09 991.493C1420.26 997.862 1425.38 1002.98 1431.75 1003.16L1439.87 1003.38L1431.75 1003.61C1425.38 1003.78 1420.26 1008.91 1420.09 1015.28L1419.86 1023.39L1419.64 1015.28C1419.46 1008.91 1414.34 1003.78 1407.97 1003.61L1399.86 1003.38L1407.97 1003.16C1414.34 1002.98 1419.46 997.862 1419.64 991.493L1419.86 983.379Z" fill="white"/>
</g>
<g filter="url(#filter9_f_4633_8577)">
<path d="M1155.79 697.78C1234.47 697.78 1305.67 708.287 1357.2 725.26C1382.96 733.747 1403.77 743.843 1418.13 755.029C1432.5 766.22 1440.34 778.443 1440.34 791.188C1440.34 803.932 1432.5 816.155 1418.13 827.346C1403.77 838.532 1382.96 848.628 1357.2 857.115C1305.67 874.088 1234.47 884.594 1155.79 884.594C1077.11 884.594 1005.91 874.088 954.385 857.115C928.621 848.628 907.808 838.532 893.447 827.346C879.079 816.155 871.239 803.932 871.239 791.188C871.239 778.443 879.078 766.22 893.447 755.029C907.808 743.842 928.621 733.747 954.385 725.26C1005.91 708.287 1077.11 697.78 1155.79 697.78Z" stroke="url(#paint0_linear_4633_8577)" stroke-opacity="0.15"/>
</g>
<g filter="url(#filter10_f_4633_8577)">
<path d="M1155.8 607.197C1277.5 607.197 1387.66 627.839 1467.37 661.193C1507.23 677.871 1539.45 697.717 1561.7 719.728C1583.95 741.738 1596.2 765.883 1596.2 791.182C1596.2 816.48 1583.95 840.626 1561.7 862.636C1539.45 884.648 1507.23 904.494 1467.37 921.171C1387.66 954.525 1277.5 975.167 1155.8 975.167C1034.1 975.167 923.942 954.525 844.229 921.171C804.372 904.494 772.15 884.648 749.9 862.636C727.651 840.626 715.4 816.48 715.4 791.182C715.4 765.883 727.652 741.738 749.9 719.728C772.15 697.717 804.372 677.871 844.229 661.193C923.942 627.839 1034.1 607.197 1155.8 607.197Z" stroke="url(#paint1_linear_4633_8577)" stroke-opacity="0.15"/>
</g>
<g filter="url(#filter11_f_4633_8577)">
<path d="M1155.8 516.611C1326.05 516.611 1480.16 547.39 1591.69 597.131C1647.45 622.002 1692.55 651.605 1723.7 684.45C1754.84 717.293 1772.02 753.357 1772.02 791.173C1772.02 828.989 1754.84 865.052 1723.7 897.895C1692.55 930.741 1647.45 960.343 1591.69 985.214C1480.16 1034.96 1326.05 1065.73 1155.8 1065.73C985.549 1065.73 831.44 1034.96 719.912 985.214C664.148 960.343 619.052 930.741 587.903 897.895C556.756 865.052 539.575 828.989 539.575 791.173C539.575 753.357 556.756 717.293 587.903 684.45C619.052 651.605 664.148 622.002 719.912 597.131C831.44 547.39 985.549 516.611 1155.8 516.611Z" stroke="url(#paint2_linear_4633_8577)" stroke-opacity="0.15"/>
</g>
</g>
<defs>
<filter id="filter0_f_4633_8577" x="630.138" y="41.7532" width="1715.71" height="1447.1" filterUnits="userSpaceOnUse" color-interpolation-filters="sRGB">
<feFlood flood-opacity="0" result="BackgroundImageFix"/>
<feBlend mode="normal" in="SourceGraphic" in2="BackgroundImageFix" result="shape"/>
<feGaussianBlur stdDeviation="269.059" result="effect1_foregroundBlur_4633_8577"/>
</filter>
<filter id="filter1_f_4633_8577" x="118.708" y="0" width="1883.74" height="1411.14" filterUnits="userSpaceOnUse" color-interpolation-filters="sRGB">
<feFlood flood-opacity="0" result="BackgroundImageFix"/>
<feBlend mode="normal" in="SourceGraphic" in2="BackgroundImageFix" result="shape"/>
<feGaussianBlur stdDeviation="269.059" result="effect1_foregroundBlur_4633_8577"/>
</filter>
<filter id="filter2_f_4633_8577" x="9.1577e-05" y="92.7937" width="1733.43" height="1397.21" filterUnits="userSpaceOnUse" color-interpolation-filters="sRGB">
<feFlood flood-opacity="0" result="BackgroundImageFix"/>
<feBlend mode="normal" in="SourceGraphic" in2="BackgroundImageFix" result="shape"/>
<feGaussianBlur stdDeviation="252.243" result="effect1_foregroundBlur_4633_8577"/>
</filter>
<filter id="filter3_f_4633_8577" x="928.232" y="468.243" width="108.029" height="108.029" filterUnits="userSpaceOnUse" color-interpolation-filters="sRGB">
<feFlood flood-opacity="0" result="BackgroundImageFix"/>
<feBlend mode="normal" in="SourceGraphic" in2="BackgroundImageFix" result="shape"/>
<feGaussianBlur stdDeviation="3" result="effect1_foregroundBlur_4633_8577"/>
</filter>
<filter id="filter4_f_4633_8577" x="884.22" y="812.334" width="52.0138" height="52.0138" filterUnits="userSpaceOnUse" color-interpolation-filters="sRGB">
<feFlood flood-opacity="0" result="BackgroundImageFix"/>
<feBlend mode="normal" in="SourceGraphic" in2="BackgroundImageFix" result="shape"/>
<feGaussianBlur stdDeviation="3" result="effect1_foregroundBlur_4633_8577"/>
</filter>
<filter id="filter5_f_4633_8577" x="1118.28" y="708.306" width="52.0138" height="52.0138" filterUnits="userSpaceOnUse" color-interpolation-filters="sRGB">
<feFlood flood-opacity="0" result="BackgroundImageFix"/>
<feBlend mode="normal" in="SourceGraphic" in2="BackgroundImageFix" result="shape"/>
<feGaussianBlur stdDeviation="3" result="effect1_foregroundBlur_4633_8577"/>
</filter>
<filter id="filter6_f_4633_8577" x="653.159" y="1000.88" width="56.0148" height="56.0148" filterUnits="userSpaceOnUse" color-interpolation-filters="sRGB">
<feFlood flood-opacity="0" result="BackgroundImageFix"/>
<feBlend mode="normal" in="SourceGraphic" in2="BackgroundImageFix" result="shape"/>
<feGaussianBlur stdDeviation="4" result="effect1_foregroundBlur_4633_8577"/>
</filter>
<filter id="filter7_f_4633_8577" x="645.657" y="657.293" width="108.029" height="108.029" filterUnits="userSpaceOnUse" color-interpolation-filters="sRGB">
<feFlood flood-opacity="0" result="BackgroundImageFix"/>
<feBlend mode="normal" in="SourceGraphic" in2="BackgroundImageFix" result="shape"/>
<feGaussianBlur stdDeviation="3" result="effect1_foregroundBlur_4633_8577"/>
</filter>
<filter id="filter8_f_4633_8577" x="1395.86" y="979.378" width="48.0127" height="48.0127" filterUnits="userSpaceOnUse" color-interpolation-filters="sRGB">
<feFlood flood-opacity="0" result="BackgroundImageFix"/>
<feBlend mode="normal" in="SourceGraphic" in2="BackgroundImageFix" result="shape"/>
<feGaussianBlur stdDeviation="2" result="effect1_foregroundBlur_4633_8577"/>
</filter>
<filter id="filter9_f_4633_8577" x="868.738" y="695.279" width="574.105" height="191.816" filterUnits="userSpaceOnUse" color-interpolation-filters="sRGB">
<feFlood flood-opacity="0" result="BackgroundImageFix"/>
<feBlend mode="normal" in="SourceGraphic" in2="BackgroundImageFix" result="shape"/>
<feGaussianBlur stdDeviation="1" result="effect1_foregroundBlur_4633_8577"/>
</filter>
<filter id="filter10_f_4633_8577" x="712.9" y="604.697" width="885.799" height="372.97" filterUnits="userSpaceOnUse" color-interpolation-filters="sRGB">
<feFlood flood-opacity="0" result="BackgroundImageFix"/>
<feBlend mode="normal" in="SourceGraphic" in2="BackgroundImageFix" result="shape"/>
<feGaussianBlur stdDeviation="1" result="effect1_foregroundBlur_4633_8577"/>
</filter>
<filter id="filter11_f_4633_8577" x="537.074" y="514.11" width="1237.45" height="554.125" filterUnits="userSpaceOnUse" color-interpolation-filters="sRGB">
<feFlood flood-opacity="0" result="BackgroundImageFix"/>
<feBlend mode="normal" in="SourceGraphic" in2="BackgroundImageFix" result="shape"/>
<feGaussianBlur stdDeviation="1" result="effect1_foregroundBlur_4633_8577"/>
</filter>
<linearGradient id="paint0_linear_4633_8577" x1="977.085" y1="707.754" x2="1026.12" y2="929.517" gradientUnits="userSpaceOnUse">
<stop stop-color="#06038D" stop-opacity="0"/>
<stop offset="1" stop-color="#06038D"/>
</linearGradient>
<linearGradient id="paint1_linear_4633_8577" x1="869.215" y1="632.274" x2="1008.51" y2="1111.85" gradientUnits="userSpaceOnUse">
<stop stop-color="#06038D"/>
<stop offset="1" stop-color="#06038D" stop-opacity="0"/>
</linearGradient>
<linearGradient id="paint2_linear_4633_8577" x1="734.141" y1="536.762" x2="963.376" y2="1229.43" gradientUnits="userSpaceOnUse">
<stop stop-color="#06038D" stop-opacity="0"/>
<stop offset="1" stop-color="#06038D"/>
</linearGradient>
</defs>
</svg>
